<?xml version="1.0" standalone="no"?>
<!DOCTYPE svg PUBLIC "-//W3C//DTD SVG 20010904//EN"
 "http://www.w3.org/TR/2001/REC-SVG-20010904/DTD/svg10.dtd">
<svg version="1.0" xmlns="http://www.w3.org/2000/svg"
 width="512.000000pt" height="512.000000pt" viewBox="0 0 512.000000 512.000000"
 preserveAspectRatio="xMidYMid meet">
<metadata>
Created by potrace 1.11, written by Peter Selinger 2001-2013
</metadata>
<g transform="translate(0.000000,512.000000) scale(0.100000,-0.100000)"
fill="#000000" stroke="none">
<path d="M3356 4892 c-3 -2 -10 -5 -18 -6 -36 -6 -155 -51 -206 -78 -302 -160
-528 -494 -568 -839 -10 -89 -11 -174 -1 -180 5 -3 43 4 85 16 215 63 362 151
492 292 105 115 165 220 219 379 28 84 35 111 46 177 3 15 7 39 10 55 3 15 7
64 11 110 l5 83 -36 -3 c-20 -1 -37 -4 -39 -6z"/>
<path d="M3487 3814 c-1 -1 -36 -4 -77 -8 -95 -8 -131 -14 -235 -40 -33 -8
-107 -36 -232 -87 -188 -78 -246 -93 -353 -87 -91 5 -188 35 -383 117 -88 37
-156 58 -242 76 -87 19 -332 13 -410 -9 -5 -2 -23 -6 -40 -10 -58 -15 -171
-59 -230 -90 -56 -30 -143 -84 -155 -96 -3 -3 -27 -23 -55 -45 -247 -199 -410
-500 -450 -831 -4 -33 -9 -68 -11 -79 -5 -26 -5 -279 0 -325 13 -129 20 -179
43 -290 38 -190 116 -441 187 -605 205 -471 524 -932 746 -1081 182 -122 316
-127 617 -23 251 87 346 110 463 114 136 6 199 -9 420 -96 264 -103 340 -118
470 -92 181 37 358 174 547 425 168 222 297 436 361 598 53 135 55 127 -40
190 -46 30 -126 98 -178 150 -335 335 -448 791 -297 1205 41 115 139 295 188
345 8 8 25 29 38 45 33 44 89 102 160 168 l63 58 -24 37 c-110 166 -338 294
-618 347 -52 10 -266 25 -273 19z"/>
</g>
</svg>
